<svg width="22" height="20" viewBox="0 0 22 20" fill="none" xmlns="http://www.w3.org/2000/svg">
<path d="M16.7857 0.571442C16.9141 0.571522 17.0409 0.600448 17.1566 0.656082C17.2723 0.711717 17.374 0.792639 17.4543 0.89287L17.5186 0.983727L21.1614 6.98373C21.2452 7.12145 21.2884 7.27998 21.2861 7.44115C21.2838 7.60231 21.2362 7.75957 21.1486 7.89487L21.0826 7.9823L11.654 19.1252C11.5792 19.2135 11.4873 19.2857 11.3839 19.3375C11.2805 19.3894 11.1676 19.4197 11.0521 19.4268C10.9366 19.4338 10.8209 19.4174 10.7119 19.3785C10.6029 19.3397 10.503 19.2791 10.418 19.2006L10.346 19.1252L0.917427 7.9823C0.813424 7.85927 0.746198 7.70942 0.723457 7.54993C0.700717 7.39045 0.723383 7.22778 0.788856 7.08058L0.83857 6.98373L4.48143 0.983727C4.54802 0.87391 4.63844 0.780461 4.746 0.710286C4.85356 0.640111 4.97552 0.595004 5.10286 0.578299L5.21428 0.571442H16.7857ZM14.0129 8.28573H7.98629L10.9991 15.7189L14.0129 8.28573ZM18.5806 8.28573H15.8626L13.3623 14.4529L18.5806 8.28573ZM6.13657 8.28573H3.41857L8.636 14.4512L6.13657 8.28573ZM7.292 2.28573H5.69514L3.09286 6.57144H6.06714L7.292 2.28573ZM12.9251 2.28573H9.074L7.84914 6.57144H14.15L12.9251 2.28573ZM16.304 2.28573H14.7071L15.932 6.57144H18.9063L16.304 2.28573Z" fill="white"/>
</svg>
